<svg width="82" height="24" viewBox="0 0 82 24" fill="none" xmlns="http://www.w3.org/2000/svg">
<path fill-rule="evenodd" clip-rule="evenodd" d="M0 7.55644V7.61552L13.7326 13.9681L27.5137 7.59382V7.57767L13.7326 1.20382L0 7.55644ZM4.95092 7.58598L13.7331 3.52352L22.5162 7.58598L13.7326 11.648L4.95092 7.58598V7.58598ZM13.7326 16.4355L0 10.178V12.4921L13.7326 18.7644L27.5137 12.4709V10.1563L13.7326 16.4355ZM13.7326 21.1294L0 14.8709V17.1855L13.7326 23.4583L27.5137 17.1647V14.8506L13.7326 21.1294ZM78.0997 12.1017C78.1077 11.0939 77.7304 10.1212 77.0451 9.38228C76.7228 9.0369 76.3347 8.75946 75.9037 8.56628C75.4662 8.36998 74.9917 8.26988 74.5121 8.27275C74.0326 8.26988 73.5581 8.36998 73.1206 8.56628C72.6895 8.75945 72.3015 9.03689 71.9792 9.38228C71.2938 10.1213 70.9165 11.0942 70.9246 12.1021C70.9165 13.1101 71.2938 14.083 71.9792 14.822C72.3015 15.1672 72.6896 15.4445 73.1206 15.6375C73.5581 15.834 74.0326 15.9342 74.5121 15.9315C74.9917 15.9342 75.4662 15.834 75.9037 15.6375C76.3347 15.4445 76.7228 15.1672 77.0451 14.822C77.7306 14.083 78.1078 13.1101 78.0997 12.1021V12.1017ZM81.2308 12.1017C81.2308 13.0451 81.0568 13.9187 80.7092 14.7237C80.375 15.5088 79.8869 16.2191 79.2738 16.8126C78.6651 17.4001 77.9511 17.8644 77.1323 18.2051C76.3131 18.5461 75.4398 18.7164 74.5121 18.7164C73.5845 18.7164 72.7149 18.5457 71.9031 18.2051C71.1102 17.8767 70.387 17.4006 69.7722 16.802C69.1604 16.2031 68.6726 15.4895 68.3368 14.702C67.9892 13.8971 67.8152 13.0303 67.8152 12.1021C67.8152 11.1883 67.9929 10.3289 68.3478 9.52398C68.6918 8.7352 69.1825 8.01896 69.7938 7.41336C70.4063 6.80899 71.1299 6.32878 71.9248 5.99921C72.7366 5.65813 73.5988 5.48782 74.5121 5.48782C75.4398 5.48782 76.3131 5.65813 77.1323 5.99921C77.9511 6.33982 78.6651 6.80413 79.2738 7.39167C79.8831 7.97875 80.3612 8.6789 80.7092 9.49121C81.0568 10.3035 81.2308 11.1735 81.2308 12.1021V12.1017ZM66.7283 18.3246C66.46 18.4481 66.1793 18.543 65.8911 18.6075C65.5738 18.6807 65.2493 18.7173 64.9237 18.7164C64.4598 18.7164 64.014 18.6546 63.5862 18.5318C63.1736 18.4165 62.7914 18.2122 62.4665 17.9332C62.148 17.6577 61.8942 17.2986 61.7054 16.856C61.5171 16.4138 61.4229 15.8807 61.4229 15.2567V0.331055H64.6191V14.7126C64.6191 15.2351 64.7243 15.5941 64.9343 15.7898C65.1448 15.986 65.3945 16.0838 65.6843 16.0838C66.0471 16.0838 66.3951 15.9749 66.7283 15.7575V18.3246V18.3246ZM60.0092 5.79244L54.3558 20.7398C53.9358 21.8567 53.3848 22.6617 52.7035 23.1551C52.0223 23.648 51.2105 23.8949 50.268 23.8949C50.1081 23.8938 49.9484 23.8829 49.7898 23.8621C49.6211 23.8414 49.4541 23.8087 49.29 23.7643L48.246 20.8487C48.4904 20.9641 48.7454 21.0553 49.0075 21.1211C49.2488 21.1836 49.4968 21.2163 49.746 21.2184C50.2394 21.2184 50.6885 21.1063 51.0946 20.8815C51.5003 20.6563 51.8118 20.2395 52.0292 19.6303L52.4645 18.3684L47.6155 5.79244H51.0291L53.9211 13.886L56.6391 5.79244H60.0092V5.79244ZM46.8545 3.89921H38.6797V7.94644H46.7465V10.688H38.6797V18.3901H35.3751V1.00582H46.8549V3.89967L46.8545 3.89921Z" fill="white"/>
</svg>
